<?xml version="1.0" encoding="UTF-8" standalone="no"?>
<!-- Created with Inkscape (http://www.inkscape.org/) -->
<svg xmlns:dc="http://purl.org/dc/elements/1.1/" xmlns:cc="http://creativecommons.org/ns#" xmlns:rdf="http://www.w3.org/1999/02/22-rdf-syntax-ns#" xmlns:svg="http://www.w3.org/2000/svg" xmlns="http://www.w3.org/2000/svg" xmlns:sodipodi="http://sodipodi.sourceforge.net/DTD/sodipodi-0.dtd" xmlns:inkscape="http://www.inkscape.org/namespaces/inkscape" width="300" height="300" id="svg2" version="1.1" inkscape:version="0.91 r13725" sodipodi:docname="Verkeersbord_A1-60.svg">
  <defs id="defs4"/>
  <sodipodi:namedview id="base" pagecolor="#ffffff" bordercolor="#666666" borderopacity="1.0" inkscape:pageopacity="0.0" inkscape:pageshadow="2" inkscape:zoom="7.191651" inkscape:cx="-0.66048152" inkscape:cy="30.000071" inkscape:document-units="px" inkscape:current-layer="layer1" showgrid="false" showborder="false" inkscape:showpageshadow="false" fit-margin-top="0" fit-margin-left="0" fit-margin-right="0" fit-margin-bottom="0" inkscape:window-width="1600" inkscape:window-height="837" inkscape:window-x="-8" inkscape:window-y="-8" inkscape:window-maximized="1"/>
  <metadata id="metadata7">
    <rdf:RDF>
      <cc:Work rdf:about="">
        <dc:format>image/svg+xml</dc:format>
        <dc:type rdf:resource="http://purl.org/dc/dcmitype/StillImage"/>
        <dc:title/>
      </cc:Work>
    </rdf:RDF>
  </metadata>
  <g inkscape:label="Laag 1" inkscape:groupmode="layer" id="layer1" transform="translate(-409.99993,-100.02574)">
    <g id="g5209" style="font-style:normal;font-variant:normal;font-weight:normal;font-stretch:normal;letter-spacing:normal;word-spacing:normal;text-anchor:start;fill:none;stroke:#000000;stroke-width:1.1499083;stroke-linecap:butt;stroke-linejoin:miter;stroke-miterlimit:10.43299961;stroke-dasharray:none;stroke-dashoffset:0;stroke-opacity:1" xml:space="preserve" transform="matrix(1.0600605,0,0,-1.0600605,246.48847,672.19339)"><path id="path5211" style="fill:#e3001b;fill-opacity:1;fill-rule:nonzero;stroke:none" d="m 295.25,256.75 7.32,0.14 7.21,0.51 7.12,0.86 7,1.21 6.87,1.55 6.74,1.88 6.6,2.19 6.45,2.51 6.29,2.82 6.13,3.1 5.94,3.39 5.76,3.67 5.57,3.93 5.36,4.19 5.15,4.43 4.93,4.68 4.7,4.9 4.46,5.13 4.21,5.34 3.96,5.54 3.69,5.73 3.41,5.92 3.14,6.1 2.84,6.26 2.54,6.42 2.23,6.57 1.91,6.71 1.58,6.84 1.25,6.96 0.9,7.07 0.55,7.18 0.19,7.27 c -0.02,78.52 -63.48,141.98 -142,142 -78.03,-0.02 -141.48,-63.48 -141,-142 -0.48,-78.03 62.97,-141.48 141,-141 z" inkscape:connector-curvature="0"/><path id="path5213" style="fill:#ffffff;fill-rule:nonzero;stroke:#ffffff;stroke-width:0" d="m 295.74802,299.19791 5.12394,0.14286 5.04775,0.40001 4.98108,0.64764 4.89537,0.88574 4.80964,1.12384 4.7144,1.35241 4.61917,1.56195 4.50487,1.79052 4.40012,1.99053 4.28581,2.19053 4.15249,2.40005 4.02867,2.58102 3.88582,2.76197 3.74295,2.94294 3.60009,3.11437 3.43818,3.28579 3.2858,3.43819 3.10484,3.59056 2.94294,3.74295 2.75245,3.8763 2.57149,4.00962 2.38101,4.14296 2.17149,4.26677 1.97148,4.38107 1.76195,4.48583 1.54289,4.59059 1.32384,4.68583 1.08574,4.78107 0.84765,4.85727 0.60953,4.94298 0.36192,5.00965 0.10479,5.07632 c 0.26667,54.95378 -44.09636,99.31682 -99.05014,99.05014 -54.48709,0.26668 -98.85013,-44.09636 -99.05013,-99.05014 0.2,-54.48709 44.56304,-98.85013 99.05013,-99.05013 z" inkscape:connector-curvature="0"/><path inkscape:connector-curvature="0" d="m 295.74785,265.00183 6.89291,0.19217 6.79042,0.53811 6.70074,0.87123 6.58543,1.19153 6.47012,1.51183 6.34199,1.81932 6.21388,2.10119 6.06013,2.40868 5.9192,2.67772 5.76546,2.9468 5.58608,3.22865 5.41952,3.47208 5.22733,3.71551 5.03518,3.95895 4.84299,4.18956 4.62517,4.42018 4.42017,4.62518 4.17674,4.83016 3.95897,5.03517 3.70268,5.21453 3.45928,5.39391 3.20302,5.57326 2.92117,5.73982 2.6521,5.89357 2.37025,6.03452 2.07557,6.17545 1.78088,6.30355 1.46058,6.43168 1.14027,6.53418 0.81998,6.64949 0.48687,6.73917 0.14092,6.82886 c 0.35875,73.92592 -59.3201,133.60477 -133.246,133.24601 -73.29812,0.35876 -132.97696,-59.32009 -133.24602,-133.24601 0.26906,-73.29811 59.9479,-132.97696 133.24602,-133.24601 z" style="fill:none;stroke:#ffffff;stroke-width:7.07505178;stroke-miterlimit:10.43299961;stroke-dasharray:none" id="path5225"/><g id="g5366" transform="matrix(1,0,0,-1,-1.4839705,796.49262)" style="font-style:normal;font-variant:normal;font-weight:normal;font-stretch:normal;letter-spacing:normal;word-spacing:normal;text-anchor:start;fill:none;stroke:#000000;stroke-width:1.1499083;stroke-linecap:butt;stroke-linejoin:miter;stroke-miterlimit:10.43299961;stroke-dasharray:none;stroke-dashoffset:0;stroke-opacity:1"><path id="path5368" style="fill:#000000;fill-rule:nonzero;stroke-width:0" d="m 284.21523,437.75 -0.68,0.69 -0.69,0.66 -0.72,0.64 -0.73,0.62 -0.75,0.59 -0.77,0.58 -0.78,0.55 -0.81,0.52 -0.82,0.51 -0.84,0.48 -0.86,0.47 -0.88,0.44 -0.9,0.41 -0.91,0.4 -0.94,0.37 -0.95,0.36 -0.98,0.33 -0.99,0.31 -1.01,0.28 -1.04,0.27 -1.05,0.24 -1.07,0.22 -1.09,0.21 -1.11,0.17 -1.14,0.16 -1.15,0.14 -1.17,0.12 -1.19,0.09 -1.22,0.07 -1.23,0.06 -1.25,0.03 -1.28,0.01 c -14.37,0 -25.19,-3.98 -32,-12 -6.61,-7.18 -9.77,-16.64 -10,-28 0.23,-9.73 2.56,-18.91 7,-28 3.37,-5.84 7.34,-11.32 12,-16 6.44,-6.01 13.84,-10.53 22,-13 5.68,-2.32 11.43,-3.97 17,-4 l 6,0 0,17 c -1.71,0.29 -5.13,0.43 -9,1 -6.41,0.8 -11.2,2.45 -15,5 -5.79,3.06 -10.31,7.04 -14,12 -0.97,1.75 -1.79,3.39 -2,5 1.71,-0.37 4.46,-0.93 8,-1 4.95,-1.16 6.73,-1.29 11,-1 8.6,-0.29 16.69,1.48 23,6 9.17,5.21 14.37,13.98 14,26 0.37,7.71 -2.23,14.56 -7,20 z" inkscape:connector-curvature="0"/><path id="path5370" style="fill:#ffffff;fill-rule:nonzero;stroke:#ffffff;stroke-width:0" d="m 265.21523,405.75 -0.59,-0.23 -0.61,-0.21 -0.64,-0.2 -0.67,-0.19 -0.7,-0.18 -0.72,-0.16 -0.76,-0.14 -0.78,-0.14 -0.82,-0.12 -0.85,-0.1 -0.89,-0.09 -0.92,-0.08 -0.47,-0.03 -0.49,-0.03 -0.49,-0.03 -0.5,-0.02 -0.51,-0.02 -0.52,-0.01 -0.53,-0.01 -0.54,-0.01 c -6.65,0.06 -12,1.57 -16,4 -2.57,3.05 -4.08,6.2 -4,10 -0.08,3.73 1.29,6.2 4,9 3.46,2.68 8.52,4.19 16,4 7.73,0.19 12.94,-1.05 16,-4 3.79,-1.98 5.43,-4.86 5,-9 0.43,-5.86 -2.04,-9.69 -8,-12 z" inkscape:connector-curvature="0"/><path id="path5372" style="fill:#000000;fill-rule:nonzero;stroke-width:0" d="m 312.25,435.75 0.71,0.83 0.73,0.81 0.73,0.77 0.75,0.75 0.76,0.72 0.77,0.69 0.78,0.67 0.79,0.64 0.81,0.61 0.82,0.58 0.83,0.55 0.84,0.53 0.86,0.5 0.87,0.47 0.88,0.45 0.89,0.41 0.91,0.4 0.92,0.36 0.94,0.34 0.95,0.3 0.96,0.29 0.97,0.25 0.99,0.23 1,0.2 1.02,0.18 1.03,0.14 1.05,0.12 1.06,0.1 1.07,0.07 1.09,0.04 1.1,0.01 1.12,-0.01 c 11.42,0.27 21.01,-3.98 29,-13 8.17,-8.92 12.55,-21.66 13,-38 -0.45,-15.58 -4.55,-28.32 -13,-38 -7.72,-8.27 -17.58,-12.38 -29,-12 -12.01,-0.38 -21.46,3.73 -29,12 -8.63,9.68 -12.87,22.42 -13,38 0.13,16.34 4.37,29.08 13,38 z" inkscape:connector-curvature="0"/><path id="path5374" style="fill:#ffffff;fill-rule:nonzero;stroke:#ffffff;stroke-width:0" d="m 357.25,423.75 -0.46,0.44 -0.45,0.42 -0.46,0.4 -0.46,0.39 -0.46,0.38 -0.46,0.36 -0.46,0.35 -0.46,0.33 -0.47,0.32 -0.47,0.31 -0.47,0.29 -0.48,0.28 -0.48,0.26 -0.48,0.25 -0.48,0.24 -0.49,0.22 -0.49,0.21 -0.5,0.19 -0.5,0.18 -0.51,0.17 -0.51,0.16 -0.51,0.14 -0.53,0.13 -0.52,0.11 -0.53,0.11 -0.54,0.09 -0.55,0.07 -0.55,0.07 -0.56,0.05 -0.56,0.04 -0.57,0.03 -0.58,0.01 c -6.67,-0.09 -11.46,-2.28 -16,-7 -5.46,-5.83 -8.07,-14.05 -8,-26 -0.07,-11.34 2.54,-19.55 8,-25 4.54,-5.11 9.47,-7.16 16,-7 6.35,-0.16 11.14,1.89 16,7 5.14,5.45 7.75,13.66 8,25 -0.25,11.95 -2.86,20.17 -8,26 z" inkscape:connector-curvature="0"/></g></g>  </g>
</svg>