<?xml version="1.0" encoding="UTF-8" standalone="no"?>
<!-- Created with Inkscape (http://www.inkscape.org/) -->
<svg xmlns:dc="http://purl.org/dc/elements/1.1/" xmlns:cc="http://creativecommons.org/ns#" xmlns:rdf="http://www.w3.org/1999/02/22-rdf-syntax-ns#" xmlns:svg="http://www.w3.org/2000/svg" xmlns="http://www.w3.org/2000/svg" xmlns:sodipodi="http://sodipodi.sourceforge.net/DTD/sodipodi-0.dtd" xmlns:inkscape="http://www.inkscape.org/namespaces/inkscape" width="300" height="300" id="svg2" version="1.1" inkscape:version="0.91 r13725" sodipodi:docname="Verkeersbord_A1-70.svg">
  <defs id="defs4"/>
  <sodipodi:namedview id="base" pagecolor="#ffffff" bordercolor="#666666" borderopacity="1.0" inkscape:pageopacity="0.0" inkscape:pageshadow="2" inkscape:zoom="7.191651" inkscape:cx="-0.66048152" inkscape:cy="30.000071" inkscape:document-units="px" inkscape:current-layer="layer1" showgrid="false" showborder="false" inkscape:showpageshadow="false" fit-margin-top="0" fit-margin-left="0" fit-margin-right="0" fit-margin-bottom="0" inkscape:window-width="1600" inkscape:window-height="837" inkscape:window-x="-8" inkscape:window-y="-8" inkscape:window-maximized="1"/>
  <metadata id="metadata7">
    <rdf:RDF>
      <cc:Work rdf:about="">
        <dc:format>image/svg+xml</dc:format>
        <dc:type rdf:resource="http://purl.org/dc/dcmitype/StillImage"/>
        <dc:title/>
      </cc:Work>
    </rdf:RDF>
  </metadata>
  <g inkscape:label="Laag 1" inkscape:groupmode="layer" id="layer1" transform="translate(-409.99993,-100.02574)">
    <g id="g5227" style="font-style:normal;font-variant:normal;font-weight:normal;font-stretch:normal;letter-spacing:normal;word-spacing:normal;text-anchor:start;fill:none;stroke:#000000;stroke-width:1.1499083;stroke-linecap:butt;stroke-linejoin:miter;stroke-miterlimit:10.43299961;stroke-dasharray:none;stroke-dashoffset:0;stroke-opacity:1" xml:space="preserve" transform="matrix(1.0600605,0,0,-1.0600605,246.48847,672.19339)"><path id="path5229" style="fill:#e3001b;fill-opacity:1;fill-rule:nonzero;stroke:none" d="m 295.25,256.75 7.32,0.14 7.21,0.51 7.12,0.86 7,1.21 6.87,1.55 6.74,1.88 6.6,2.19 6.45,2.51 6.29,2.82 6.13,3.1 5.94,3.39 5.76,3.67 5.57,3.93 5.36,4.19 5.15,4.43 4.93,4.68 4.7,4.9 4.46,5.13 4.21,5.34 3.96,5.54 3.69,5.73 3.41,5.92 3.14,6.1 2.84,6.26 2.54,6.42 2.23,6.57 1.91,6.71 1.58,6.84 1.25,6.96 0.9,7.07 0.55,7.18 0.19,7.27 c -0.02,78.52 -63.48,141.98 -142,142 -78.03,-0.02 -141.48,-63.48 -141,-142 -0.48,-78.03 62.97,-141.48 141,-141 z" inkscape:connector-curvature="0"/><path id="path5231" style="fill:#ffffff;fill-rule:nonzero;stroke:#ffffff;stroke-width:0" d="m 295.74802,299.19791 5.12394,0.14286 5.04775,0.40001 4.98108,0.64764 4.89537,0.88574 4.80964,1.12384 4.7144,1.35241 4.61917,1.56195 4.50487,1.79052 4.40012,1.99053 4.28581,2.19053 4.15249,2.40005 4.02867,2.58102 3.88582,2.76197 3.74295,2.94294 3.60009,3.11437 3.43818,3.28579 3.2858,3.43819 3.10484,3.59056 2.94294,3.74295 2.75245,3.8763 2.57149,4.00962 2.38101,4.14296 2.17149,4.26677 1.97148,4.38107 1.76195,4.48583 1.54289,4.59059 1.32384,4.68583 1.08574,4.78107 0.84765,4.85727 0.60953,4.94298 0.36192,5.00965 0.10479,5.07632 c 0.26667,54.95378 -44.09636,99.31682 -99.05014,99.05014 -54.48709,0.26668 -98.85013,-44.09636 -99.05013,-99.05014 0.2,-54.48709 44.56304,-98.85013 99.05013,-99.05013 z" inkscape:connector-curvature="0"/><path inkscape:connector-curvature="0" d="m 295.74785,265.00183 6.89291,0.19217 6.79042,0.53811 6.70074,0.87123 6.58543,1.19153 6.47012,1.51183 6.34199,1.81932 6.21388,2.10119 6.06013,2.40868 5.9192,2.67772 5.76546,2.9468 5.58608,3.22865 5.41952,3.47208 5.22733,3.71551 5.03518,3.95895 4.84299,4.18956 4.62517,4.42018 4.42017,4.62518 4.17674,4.83016 3.95897,5.03517 3.70268,5.21453 3.45928,5.39391 3.20302,5.57326 2.92117,5.73982 2.6521,5.89357 2.37025,6.03452 2.07557,6.17545 1.78088,6.30355 1.46058,6.43168 1.14027,6.53418 0.81998,6.64949 0.48687,6.73917 0.14092,6.82886 c 0.35875,73.92592 -59.3201,133.60477 -133.246,133.24601 -73.29812,0.35876 -132.97696,-59.32009 -133.24602,-133.24601 0.26906,-73.29811 59.9479,-132.97696 133.24602,-133.24601 z" style="fill:none;stroke:#ffffff;stroke-width:7.07505178;stroke-miterlimit:10.43299961;stroke-dasharray:none" id="path5243"/><g transform="translate(-1.0017925,0.00467509)" id="g5355" style="font-style:normal;font-variant:normal;font-weight:normal;font-stretch:normal;letter-spacing:normal;word-spacing:normal;text-anchor:start;fill:none;stroke:#000000;stroke-width:1.1499083;stroke-linecap:butt;stroke-linejoin:miter;stroke-miterlimit:10.43299961;stroke-dasharray:none;stroke-dashoffset:0;stroke-opacity:1"><path inkscape:connector-curvature="0" d="m 211.25,447.75 80,0 0,-16 c 0.25,0.7 -2.35,-3.14 -9,-12 -6.64,-9.5 -11.85,-19.36 -16,-29 -3.66,-9.95 -5.85,-18.58 -7,-30 -0.22,-3.93 0.06,-8.17 0,-13 l -18,0 c -0.16,6.47 -0.03,11.13 0,14 0.66,11.37 2.44,21.24 6,31 2.88,10.1 6.3,15.86 11,24 4.34,7.06 9,13 9,13 l -56,0 0,18 z" style="fill:#000000;fill-rule:nonzero;stroke-width:0" id="path5141"/><path inkscape:connector-curvature="0" d="m 311.25,435.75 0.76,0.83 0.77,0.81 0.77,0.77 0.79,0.75 0.79,0.72 0.8,0.69 0.81,0.67 0.82,0.64 0.83,0.61 0.84,0.58 0.85,0.55 0.86,0.53 0.86,0.5 0.88,0.47 0.88,0.45 0.9,0.41 0.91,0.4 0.91,0.36 0.93,0.34 0.94,0.3 0.95,0.29 0.95,0.25 0.97,0.23 0.98,0.2 0.99,0.18 1.01,0.14 1.01,0.12 1.02,0.1 1.04,0.07 1.05,0.04 1.06,0.01 1.07,-0.01 c 11.93,0.27 21.52,-3.98 29,-13 8.69,-8.92 13.07,-21.66 13,-38 0.07,-15.58 -4.04,-28.32 -12,-38 -8.2,-8.27 -18.07,-12.38 -30,-12 -11.49,-0.38 -20.95,3.73 -29,12 -8.11,9.68 -12.36,22.42 -12,38 -0.36,16.34 3.89,29.08 12,38 z" style="fill:#000000;fill-rule:nonzero;stroke-width:0" id="path5143"/><path inkscape:connector-curvature="0" d="m 356.25,423.75 -0.41,0.44 -0.41,0.42 -0.42,0.4 -0.42,0.39 -0.42,0.38 -0.43,0.36 -0.44,0.35 -0.44,0.33 -0.44,0.32 -0.45,0.31 -0.46,0.29 -0.46,0.28 -0.47,0.26 -0.47,0.25 -0.48,0.24 -0.49,0.22 -0.49,0.21 -0.5,0.19 -0.51,0.18 -0.52,0.17 -0.52,0.16 -0.53,0.14 -0.54,0.13 -0.55,0.11 -0.56,0.11 -0.57,0.09 -0.57,0.07 -0.59,0.07 -0.59,0.05 -0.61,0.04 -0.61,0.03 -0.63,0.01 c -6.15,-0.09 -10.95,-2.28 -15,-7 -5.95,-5.83 -8.55,-14.05 -9,-26 0.45,-11.34 3.05,-19.55 9,-25 4.05,-5.11 8.98,-7.16 15,-7 6.86,-0.16 11.66,1.89 16,7 5.66,5.45 8.26,13.66 8,25 0.26,11.95 -2.34,20.17 -8,26 z" style="fill:#ffffff;fill-rule:nonzero;stroke:#ffffff;stroke-width:0" id="path5145"/></g></g>  </g>
</svg>