<?xml version="1.0" encoding="UTF-8" standalone="no"?>
<svg xmlns:dc="http://purl.org/dc/elements/1.1/" xmlns:cc="http://creativecommons.org/ns#" xmlns:rdf="http://www.w3.org/1999/02/22-rdf-syntax-ns#" xmlns:svg="http://www.w3.org/2000/svg" xmlns="http://www.w3.org/2000/svg" xmlns:sodipodi="http://sodipodi.sourceforge.net/DTD/sodipodi-0.dtd" xmlns:inkscape="http://www.inkscape.org/namespaces/inkscape" id="Nederlands_verkeersbord_E10" width="241.2" height="301.20001" viewBox="0 0 241.2 301.20001" version="1.1" inkscape:version="0.48.4 r9939" sodipodi:docname="AJAX.svg">
  <metadata id="metadata41">
    <rdf:RDF>
      <cc:Work rdf:about="">
        <dc:format>image/svg+xml</dc:format>
        <dc:type rdf:resource="http://purl.org/dc/dcmitype/StillImage"/>
      </cc:Work>
    </rdf:RDF>
  </metadata>
  <defs id="defs39"/>
  <sodipodi:namedview pagecolor="#ffffff" bordercolor="#666666" borderopacity="1" objecttolerance="10" gridtolerance="10" guidetolerance="10" inkscape:pageopacity="0" inkscape:pageshadow="2" inkscape:window-width="1920" inkscape:window-height="1057" id="namedview37" showgrid="false" fit-margin-top="0" fit-margin-left="0" fit-margin-right="0" fit-margin-bottom="0" inkscape:zoom="2.2250293" inkscape:cx="179.48037" inkscape:cy="129.28881" inkscape:window-x="-8" inkscape:window-y="-8" inkscape:window-maximized="1" inkscape:current-layer="Nederlands_verkeersbord_E10"/>
  <path inkscape:connector-curvature="0" d="m 0,301.2 241.2,0 L 241.2,0 0,0 z" style="fill:#000000;stroke:none" id="path3907" sodipodi:nodetypes="ccccc"/>
  <path inkscape:connector-curvature="0" d="m 0.6,300.6 240,0 0,-300 -240,0 0,300 z m 240,0 0,0 z" style="fill:#ffffff;stroke:none" id="path3920"/>
  <g style="fill:#000000;stroke:none" transform="matrix(1.0154129,0,0,-1.0154129,-0.68723,301.03731)" id="g3924">
    <path inkscape:connector-curvature="0" d="m 97.853148,252.79709 -14.87485,0 0,3.40116 9.839848,12.45734 -9.578724,0 0,3.4337 14.548446,0 0,-3.17332 -9.938607,-12.71772 10.003887,0 0,-3.40116 z" style="fill:#000000;stroke:none" id="path3926"/>
    <path inkscape:connector-curvature="0" d="m 97.853148,252.79709 -14.87485,0 0,3.40116 9.839848,12.45734 -9.578724,0 0,3.4337 14.548446,0 0,-3.17332 -9.938607,-12.71772 10.003887,0 0,-3.40116 z" style="fill:#000000;stroke:none" id="path3928"/>
    <path inkscape:connector-curvature="0" d="m 117.53352,262.61814 c 0.39169,-13.44188 -16.77134,-13.37679 -16.57549,-0.0651 0.0653,13.25473 16.80398,12.55497 16.57549,0.0651 z m -3.76034,1.04963 c -0.68629,7.21728 -10.23237,6.8023 -8.99037,-2.76649 0.58837,-6.8023 10.20058,-6.67211 8.99037,2.76649 z" style="fill:#000000;stroke:none" id="path3930"/>
    <path inkscape:connector-curvature="0" d="m 117.5326,262.61814 c 0.39169,-13.44188 -16.77134,-13.37679 -16.57549,-0.0651 0.0653,13.25473 16.80398,12.55497 16.57549,0.0651 z m -3.76034,1.04963 c -0.68629,7.21728 -10.23237,6.8023 -8.99037,-2.76649 0.58837,-6.8023 10.20058,-6.67211 8.99037,2.76649 z" style="fill:#000000;stroke:none" id="path3932"/>
    <path inkscape:connector-curvature="0" d="m 137.76979,271.90214 0,-19.17014 -3.66159,0 -8.46728,12.17256 0,-12.17256 -3.75951,0 0,19.17014 3.39962,0 8.82717,-12.45733 0,12.45733 3.66159,0 z" style="fill:#000000;stroke:none" id="path3934"/>
    <path inkscape:connector-curvature="0" d="m 137.76887,271.90214 0,-19.17014 -3.66159,0 -8.46728,12.17256 0,-12.17256 -3.75951,0 0,19.17014 3.39962,0 8.82717,-12.45733 0,12.45733 3.66159,0 z" style="fill:#000000;stroke:none" id="path3936"/>
    <path inkscape:connector-curvature="0" d="m 155.91455,271.99977 0,-3.24654 -9.44816,0 0,-4.35316 5.72128,0 0,-3.11636 -5.72128,0 0,-5.53298 9.41551,0 0,-3.20587 -12.61931,0 0,19.45491 12.65196,0 z" style="fill:#000000;stroke:none" id="path3938"/>
    <path inkscape:connector-curvature="0" d="m 155.91363,271.99977 0,-3.24654 -9.44816,0 0,-4.35316 5.72128,0 0,-3.11636 -5.72128,0 0,-5.53298 9.41551,0 0,-3.20587 -12.61931,0 0,19.45491 12.65196,0 z" style="fill:#000000;stroke:none" id="path3940"/>
  </g>
  <path sodipodi:nodetypes="sssss" style="fill:#8f9695;fill-opacity:1;stroke:none" d="M 120.59996,235.6 C 167.54424,235.6 205.6,197.54421 205.6,150.59996 205.6,103.65578 167.54424,65.599952 120.59997,65.599952 73.655804,65.599952 35.6,103.65578 35.6,150.59996 35.6,197.54421 73.655804,235.6 120.59997,235.6 z" id="path3942" inkscape:connector-curvature="0"/>
  <path inkscape:connector-curvature="0" id="path3944" d="M 120.59998,213.5 C 155.33871,213.5 183.5,185.3387 183.5,150.59998 183.5,115.86129 155.33871,87.699966 120.59998,87.699966 85.861322,87.699966 57.7,115.86129 57.7,150.59998 57.7,185.3387 85.861322,213.5 120.59998,213.5 z" style="fill:#ffffff;fill-opacity:1;stroke:none" sodipodi:nodetypes="sssss"/>
  <path id="path3946" d="m 91.581562,120.56666 c -3.59575,5e-5 -6.647301,0.43328 -9.17002,1.29243 -2.522755,0.85923 -4.605636,1.81129 -6.21591,2.831 -1.610302,1.01978 -2.756096,1.97186 -3.507995,2.83101 l -1.169328,1.23087 6.462091,6.40055 c -2.3e-5,3e-5 0.271048,-0.29805 0.861611,-0.86162 0.590523,-0.56347 1.484804,-1.17542 2.584834,-1.84631 1.100008,-0.67077 2.408753,-1.28273 3.938797,-1.8463 1.530011,-0.56347 3.238285,-0.86155 5.169672,-0.86162 2.362173,7e-5 4.282053,0.29815 5.785103,0.86162 1.50297,0.56357 2.71029,1.22585 3.569543,2.03093 0.85917,0.80521 1.46282,1.66414 1.78476,2.5233 0.32195,0.85927 0.49231,1.55685 0.49236,2.09249 -5e-5,1.12872 -0.205,2.18056 -0.5539,3.20027 -0.34896,1.01978 -1.08859,1.80303 -2.215573,2.33866 -0.42923,0.21463 -0.92106,0.38423 -1.53859,0.49235 -0.61763,0.10812 -1.27161,0.19299 -1.9694,0.24617 -0.69789,0.0531 -1.42169,0.0962 -2.09249,0.12309 -0.670854,0.0268 -1.240008,0.0616 -1.723222,0.0615 l -1.230874,0 0,9.23155 c -3.4e-5,0 0.247753,-0.0344 0.676986,-0.0615 0.429148,-0.0268 1.032806,4e-5 1.784762,0 1.018888,4e-5 2.165508,0.0579 3.507988,0.24618 1.34244,0.18846 2.60835,0.60583 3.815723,1.16932 1.20726,0.56355 2.27947,1.36176 3.13873,2.46175 0.85917,1.10004 1.29237,2.54311 1.29241,4.36961 -4e-5,1.073 -0.29814,2.23085 -0.86162,3.38491 -0.56355,1.15407 -1.42248,2.24207 -2.52329,3.26181 -1.10087,1.01975 -2.424603,1.81714 -4.061873,2.46175 -1.63737,0.64463 -3.57764,0.9847 -5.723568,0.9847 -2.899548,0 -5.423114,-0.46771 -7.569878,-1.35395 -2.146802,-0.88622 -3.897069,-1.84579 -5.292763,-2.89256 -1.395713,-1.04676 -2.405558,-2.00714 -3.077183,-2.89256 -0.671664,-0.88541 -1.046265,-1.2924 -1.046248,-1.29242 l -7.569873,4.55424 1.353965,2.09248 c 0.886227,1.36867 2.24527,2.82916 4.123424,4.49269 1.87812,1.66356 4.274876,3.18474 7.200617,4.55424 2.925699,1.36948 6.444978,2.09249 10.523974,2.09249 3.543283,0 6.798123,-0.59536 9.723906,-1.72323 2.92567,-1.12786 5.44176,-2.57174 7.50834,-4.36961 2.06647,-1.79784 3.61175,-3.8379 4.73886,-6.09282 1.12699,-2.25489 1.72318,-4.5157 1.72322,-6.76981 -4e-5,-2.25405 -0.37546,-4.22509 -1.04624,-5.96974 -0.67087,-1.7446 -1.37596,-3.21552 -2.15404,-4.36961 -0.77815,-1.15404 -1.48324,-1.99425 -2.15401,-2.58483 -0.67087,-0.59054 -1.04629,-0.92312 -1.04625,-0.92316 -4e-5,4e-5 0.20492,-0.21325 0.55388,-0.61543 0.3489,-0.40214 0.77462,-1.02159 1.23089,-1.90786 0.45617,-0.88621 0.85567,-2.0162 1.23087,-3.3849 0.37501,-1.36864 0.55385,-2.98297 0.55389,-4.86196 -4e-5,-1.34161 -0.38377,-2.98295 -1.10778,-4.86195 -0.72411,-1.8789 -1.86239,-3.63668 -3.44645,-5.35431 -1.58413,-1.71755 -3.59717,-3.22295 -6.09283,-4.43114 -2.495763,-1.2081 -5.572673,-1.78472 -9.170008,-1.78477 z m 58.923938,0.24618 c -3.22061,6e-5 -6.24431,0.64652 -9.17001,1.90784 -2.92575,1.26142 -5.562,3.10481 -7.81605,5.60048 -2.2541,2.49577 -4.01185,5.62382 -5.3543,9.35465 -1.34246,3.73092 -2.03095,8.04674 -2.03095,12.98573 0,4.93738 0.68849,9.28938 2.03095,13.04726 1.34245,3.75793 3.1002,6.92049 5.3543,9.41619 2.25405,2.49572 4.8903,4.33912 7.81605,5.60048 2.92571,1.26139 5.9494,1.90786 9.17001,1.90786 3.22055,0 6.34114,-0.64647 9.2931,-1.90786 2.95188,-1.26136 5.56108,-3.10476 7.81604,-5.60048 2.25485,-2.4957 4.01262,-5.65826 5.3543,-9.41619 1.34161,-3.75788 2.03089,-8.10988 2.03095,-13.04726 -6e-5,-4.93899 -0.68933,-9.25481 -2.03095,-12.98573 -1.34168,-3.73083 -3.09945,-6.85888 -5.3543,-9.35465 -2.25496,-2.49567 -4.86416,-4.33906 -7.81604,-5.60048 -2.95196,-1.26132 -6.07256,-1.90778 -9.2931,-1.90784 z m 0,9.23154 c 1.66432,7e-5 3.39881,0.34015 5.16967,0.98471 1.7708,0.64466 3.42045,1.74014 4.92351,3.32336 1.50293,1.58333 2.72607,3.74352 3.69261,6.40055 0.96647,2.65711 1.477,5.93606 1.47705,9.90854 -5e-5,4.02494 -0.51058,7.37458 -1.47705,10.03162 -0.96654,2.65709 -2.15516,4.81649 -3.63107,6.40056 -1.47601,1.5841 -3.15189,2.67957 -4.92351,3.32335 -1.77169,0.6438 -3.44545,0.9847 -5.10813,0.9847 -1.61032,0 -3.30948,-0.3409 -5.10812,-0.9847 -1.79872,-0.64378 -3.48206,-1.73925 -4.98506,-3.32335 -1.50298,-1.58407 -2.72613,-3.74347 -3.69261,-6.40056 -0.96651,-2.65704 -1.47705,-6.00668 -1.47705,-10.03162 0,-3.97248 0.51054,-7.25143 1.47705,-9.90854 0.96648,-2.65703 2.15507,-4.81722 3.63107,-6.40055 1.47595,-1.58322 3.12479,-2.6787 4.92351,-3.32336 1.79864,-0.64456 3.49778,-0.98464 5.10813,-0.98471 z" inkscape:connector-curvature="0" style="fill:#8f9695;fill-opacity:1;stroke:#8f9695;stroke-width:1.70000005;stroke-miterlimit:4;stroke-opacity:1;stroke-dasharray:none" sodipodi:nodetypes="ccccccccccccccccccccccccccccccsscccccccssscccccccccccccccccssssssssccccccccccccccsscccssscc"/>
  <path inkscape:connector-curvature="0" id="path37" style="fill:none;stroke:#000000;stroke-width:4.96988058;stroke-opacity:1" d="m 211.52124,292.99206 c 10.79544,0 19.52422,-7.08061 19.52422,-15.82725 l 0,-253.137944 c 0,-8.738473 -8.72878,-15.8190833 -19.52422,-15.8190833 l -181.84246,0 c -10.76185,0 -19.52423,7.0806103 -19.52423,15.8190833 l 0,253.137944 c 0,8.74664 8.76238,15.82725 19.52423,15.82725 l 181.84246,0 z"/>
  <path inkscape:connector-curvature="0" id="zwarte_strepen" style="fill:none;stroke:#000000;stroke-width:4.96988058;stroke-opacity:1" d="M 10.12094,276.5278 213.32748,8.3629527 M 15.83371,288.45949 225.03865,12.675013 M 27.61209,292.86138 231.07906,24.44338"/>
</svg>