<?xml version="1.0" standalone="no"?>
<svg id="Nederlands_verkeersbord_C21" width="300" height="300" viewBox="0 0 300 300"
xmlns="http://www.w3.org/2000/svg" version="1.1">

<circle id="witte_cirkel_met_rode_rand" cx="150" cy="150" r="130.5"
fill="#f7fbf5" stroke="#c1121c" stroke-width="39" />

<path fill="#2a2d2f"
       d="M 203.69068,184.05742 L 194.88319,184.05742 L 194.88319,201.54406 L 184.35816,201.54406 L 184.35816,184.05742 L 149.0639,184.05742 L 149.0639,173.78362 L 183.9129,123.8311 L 194.88319,123.8311 L 194.88319,173.53125 L 203.69068,173.53125 L 203.69068,184.05742 z M 184.35816,173.53125 C 184.35816,154.35945 184.48514,145.45331 184.48514,143.0029 L 162.54538,173.53125 L 184.35816,173.53125" />

<path fill="#2a2d2f"
       d="M 231.35368,156.76915 L 239.78022,156.76915 L 239.78022,165.48805 L 231.35368,165.48805 L 231.35368,188.86055 C 231.92593,191.59589 231.64021,192.99612 236.69597,190.76552 C 237.3952,190.44802 238.34921,185.52278 239.20798,185.42509 L 240.35246,194.96622 C 238.66748,197.22124 238.95319,195.82101 236.98168,198.90641 L 233.03948,201.16957 C 225.43997,202.43955 222.32397,197.73412 222.32397,191.78313 L 222.32397,165.48805 L 216.09117,165.48805 L 216.09117,156.76915 L 222.32397,156.76915 L 222.32397,146.91867 L 231.35368,142.84823 L 231.35368,156.76915" />

<path fill="#2a2d2f"
       d="M 140.98738,197.95392 C 137.96663,206.92519 131.35287,207.71485 131.35287,207.71485 L 130.24013,204.82484 C 131.44811,203.64441 133.51486,202.47212 133.92837,200.08684 C 133.92837,200.08684 130.30362,201.86969 127.88685,198.30398 C 125.43834,194.74641 126.13757,190.13053 128.77737,187.62313 C 131.38462,185.1076 136.91738,185.64489 139.55637,189.01522 C 142.10012,192.26344 140.98738,197.95392 140.98738,197.95392" />

<path fill="#2a2d2f"
       d="M 79.14204,134.44683 C 82.57631,131.80918 86.13757,130.02632 93.35531,130.25427 C 105.91534,130.66131 123.3081,138.86733 122.60887,165.80554 C 122.2906,178.65187 115.16809,200.15196 91.95604,200.15196 C 68.74481,200.15196 61.30403,179.22173 61.08181,179.25429 L 72.91005,173.21375 C 73.00529,173.78362 79.17379,186.47527 91.47904,186.47527 C 100.35083,186.47527 108.68132,177.18651 108.68132,166.02535 C 108.68132,154.89675 103.62556,143.73558 89.63533,144.20776 C 87.12332,144.27288 79.96907,148.25378 75.70777,153.71632 L 64.83354,149.52376 L 64.83354,97.37321 L 116.85307,97.37321 L 116.85307,112.60481 L 79.14204,112.60481 L 79.14204,134.44683" />

</svg>