<?xml version="1.0" standalone="no"?>
<!DOCTYPE svg PUBLIC "-//W3C//DTD SVG 20010904//EN"
 "http://www.w3.org/TR/2001/REC-SVG-20010904/DTD/svg10.dtd">
<svg version="1.0" xmlns="http://www.w3.org/2000/svg"
 width="1280.000000pt" height="1272.000000pt" viewBox="0 0 1280.000000 1272.000000"
 preserveAspectRatio="xMidYMid meet">
<metadata>
Created by potrace 1.15, written by Peter Selinger 2001-2017
</metadata>
<g transform="translate(0.000000,1272.000000) scale(0.100000,-0.100000)"
fill="#000000" stroke="none">
<path d="M6110 12714 c-482 -32 -750 -69 -1132 -155 -1367 -307 -2604 -1063
-3498 -2134 -839 -1006 -1328 -2188 -1457 -3520 -24 -252 -24 -838 0 -1090
129 -1332 618 -2514 1457 -3520 1032 -1238 2519 -2046 4125 -2244 297 -37 446
-46 795 -46 349 0 498 9 795 46 1606 198 3093 1006 4125 2244 814 976 1314
2156 1445 3410 8 83 20 152 25 153 14 5 14 999 0 1004 -5 2 -17 71 -25 153
-119 1140 -546 2227 -1238 3150 -905 1207 -2228 2062 -3705 2394 -475 107
-848 150 -1347 155 -170 2 -335 2 -365 0z"/>
</g>
</svg>
